<?xml version="1.0" encoding="UTF-8" standalone="no"?>
<!-- Created with Inkscape (http://www.inkscape.org/) -->

<svg
   width="6.3499527mm"
   height="6.350029mm"
   viewBox="0 0 6.3499527 6.350029"
   version="1.1"
   id="svg5"
   xml:space="preserve"
   xmlns:inkscape="http://www.inkscape.org/namespaces/inkscape"
   xmlns:sodipodi="http://sodipodi.sourceforge.net/DTD/sodipodi-0.dtd"
   xmlns="http://www.w3.org/2000/svg"
   xmlns:svg="http://www.w3.org/2000/svg"><sodipodi:namedview
     id="namedview7"
     pagecolor="#ffffff"
     bordercolor="#000000"
     borderopacity="0.25"
     inkscape:showpageshadow="2"
     inkscape:pageopacity="0.0"
     inkscape:pagecheckerboard="0"
     inkscape:deskcolor="#d1d1d1"
     inkscape:document-units="mm"
     showgrid="false" /><defs
     id="defs2" /><g
     inkscape:label="Layer 1"
     inkscape:groupmode="layer"
     id="layer1"
     transform="translate(-123.95753,114.72717)"><path
       style="fill:#111111;stroke-width:0.0270783"
       d="m 126.8275,-108.38457 c -0.84786,-0.10456 -1.57292,-0.4846 -2.10865,-1.10527 -0.6076,-0.70393 -0.86563,-1.6198 -0.72289,-2.56586 0.2078,-1.37725 1.33974,-2.47131 2.73891,-2.64726 0.80057,-0.10067 1.64542,0.1162 2.27348,0.58358 0.64844,0.48255 1.08247,1.16384 1.25007,1.96223 0.0661,0.31505 0.0654,0.90508 -0.002,1.21794 -0.2754,1.28684 -1.22597,2.23594 -2.50822,2.50435 -0.20392,0.0427 -0.74377,0.0722 -0.92111,0.0503 z m -0.43346,-0.75738 c 0,-0.009 -0.023,-0.0485 -0.0512,-0.088 -0.0638,-0.0896 -0.24617,-0.45133 -0.33671,-0.66785 -0.12468,-0.29813 -0.26009,-0.8288 -0.30201,-1.18354 l -0.0184,-0.15562 h -0.53988 c -0.62033,0 -0.56995,-0.032 -0.48339,0.30673 0.19837,0.77617 0.73865,1.4033 1.48772,1.72684 0.17407,0.0752 0.24382,0.0927 0.24382,0.0614 z m 1.74038,-0.0701 c 0.55968,-0.24534 1.01892,-0.67796 1.27596,-1.20202 0.0947,-0.19304 0.19071,-0.46802 0.2212,-0.63341 0.01,-0.0521 0.0235,-0.11605 0.0308,-0.1421 0.0124,-0.044 -0.0255,-0.0474 -0.52979,-0.0474 -0.54156,0 -0.54317,2e-4 -0.55535,0.0609 -0.007,0.0335 -0.0265,0.15833 -0.044,0.27741 -0.0771,0.526 -0.287,1.12383 -0.555,1.58068 -0.0518,0.0883 -0.0942,0.1677 -0.0942,0.17636 0,0.0305 0.0557,0.0149 0.25036,-0.0705 z m -0.72416,-0.38744 c 0.24017,-0.40703 0.4602,-1.0402 0.51494,-1.48183 l 0.0193,-0.15562 h -0.80232 -0.80231 l 5.2e-4,0.10149 c 8e-4,0.12451 0.088,0.52703 0.16571,0.7646 0.0878,0.26816 0.29936,0.70229 0.46908,0.96241 l 0.15243,0.23362 0.0854,-0.11761 c 0.047,-0.0647 0.13572,-0.20286 0.1972,-0.30706 z m -1.67358,-2.63553 c 0.0909,-0.53817 0.31087,-1.15083 0.57244,-1.59402 0.0444,-0.0752 0.0744,-0.14299 0.0667,-0.15066 -0.0261,-0.0261 -0.42801,0.1606 -0.62444,0.29007 -0.44357,0.29234 -0.80203,0.72235 -0.9816,1.17747 -0.0799,0.20249 -0.17096,0.56793 -0.15312,0.61439 0.0127,0.0331 0.0999,0.0383 0.53703,0.0321 l 0.52185,-0.007 z m 2.20157,0.3109 c 0,-0.27111 -0.20505,-0.95595 -0.40466,-1.35153 -0.12969,-0.257 -0.3734,-0.64076 -0.40693,-0.64076 -0.0252,0 -0.34453,0.52046 -0.4187,0.68245 -0.20708,0.4523 -0.36802,1.00891 -0.36808,1.27302 l -2e-5,0.1015 h 0.79919 0.7992 z m 1.71196,-0.03 c -0.018,-0.17582 -0.12221,-0.49838 -0.23201,-0.71841 -0.28491,-0.57086 -0.7116,-0.97209 -1.31074,-1.23252 -0.11542,-0.0502 -0.21352,-0.0805 -0.218,-0.0674 -0.005,0.0131 0.029,0.0841 0.0744,0.15789 0.2904,0.47151 0.49257,1.08463 0.61143,1.85428 l 0.0158,0.10206 0.53372,-0.007 0.53372,-0.007 z"
       id="path302"
       inkscape:export-filename="default2.svg"
       inkscape:export-xdpi="9.8296709"
       inkscape:export-ydpi="9.8296709" /></g></svg>
